<svg width="88" height="1077" fill="none" xmlns="http://www.w3.org/2000/svg"><path d="M16.116 28.22c.847 18.148 12.101 32.592 23.56 47.181h0l.008.01v.001l.218.277c11.152 14.206 22.22 28.304 23.057 46.368l10.1-.027c-.846-18.146-12.1-32.589-23.554-47.178v-.001l-.004-.005-.001-.001-.205-.261c-11.163-14.214-22.241-28.32-23.079-46.39l-10.1.027zm0 221.001c.847 18.147 12.101 32.591 23.56 47.18v.001l.008.01h0l.218.277c11.152 14.206 22.22 28.305 23.057 46.368l10.1-.027c-.846-18.146-12.1-32.589-23.554-47.178v-.001l-.004-.005-.001-.001-.205-.261c-11.163-14.214-22.241-28.319-23.079-46.39l-10.1.027zm3 227c.847 18.147 12.101 32.591 23.56 47.18v.001l.008.01h0l.218.277c11.152 14.206 22.22 28.305 23.057 46.368l10.1-.027c-.846-18.146-12.1-32.589-23.554-47.178v-.001l-.004-.005-.001-.001-.205-.261c-11.163-14.214-22.241-28.319-23.079-46.39l-10.1.027zm0 242c.847 18.147 12.101 32.591 23.56 47.18v.001l.008.01h0l.218.277c11.152 14.206 22.22 28.305 23.057 46.368l10.1-.027c-.846-18.146-12.1-32.589-23.554-47.178v-.001l-.004-.005-.001-.001-.205-.261c-11.163-14.214-22.241-28.319-23.079-46.39l-10.1.027zm-7 238c.847 18.147 12.101 32.591 23.56 47.179h0l.008.01h0l.218.28c11.152 14.21 22.22 28.3 23.057 46.37l10.1-.03c-.846-18.15-12.1-32.59-23.554-47.18h0-.005l-.205-.27c-11.163-14.21-22.241-28.315-23.079-46.386l-10.1.027zm2-722.191c.847-18.147 12.101-32.591 23.56-47.18v-.001l.008-.01h0l.218-.277c11.152-14.206 22.22-28.305 23.057-46.368l10.1.027c-.846 18.146-12.1 32.589-23.554 47.178v.001l-.004.004-.001.002-.205.261c-11.163 14.214-22.241 28.319-23.079 46.39l-10.1-.027zm5 219c.847-18.147 12.101-32.591 23.56-47.18v-.001l.008-.01h0l.218-.277c11.152-14.206 22.22-28.305 23.057-46.368l10.1.027c-.846 18.146-12.1 32.589-23.554 47.178v.001l-.004.005-.001.001-.205.261c-11.163 14.214-22.241 28.319-23.079 46.39l-10.1-.027zm-2 236c.847-18.147 12.101-32.591 23.56-47.18v-.001l.008-.01h0l.218-.277c11.152-14.206 22.22-28.305 23.057-46.368l10.1.027c-.846 18.146-12.1 32.589-23.554 47.178v.001l-.004.005-.001.001-.205.261c-11.163 14.214-22.241 28.319-23.079 46.39l-10.1-.027zm-3 242c.847-18.147 12.101-32.591 23.56-47.18v-.001l.008-.01h0l.218-.277c11.152-14.206 22.22-28.305 23.057-46.368l10.1.027c-.846 18.146-12.1 32.589-23.554 47.178v.001l-.004.004-.001.002-.205.261c-11.163 14.214-22.241 28.319-23.079 46.39l-10.1-.027z" fill="#49A5F0" stroke="#49A5F0" stroke-width="4.13"/><path d="M86 824.919C86 816.68 79.284 810 71 810c-8.284 0-15 6.68-15 14.919 0 8.24 6.716 14.92 15 14.92 8.284 0 15-6.68 15-14.92z" fill="#000"/><path d="M71 810c-8.271 0-15 6.693-15 14.919h30C86 816.693 79.271 810 71 810z" fill="#000"/><g filter="url(#filter0_d)"><path d="M82.426 824.919c0 6.267-5.126 11.365-11.426 11.365s-11.426-5.098-11.426-11.365c0-6.266 5.126-11.364 11.426-11.364s11.426 5.098 11.426 11.364z" fill="#000"/></g><path d="M71 813.555c-6.3 0-11.426 5.098-11.426 11.364h22.852c0-6.266-5.126-11.364-11.426-11.364zM32 941.919C32 933.68 25.284 927 17 927c-8.284 0-15 6.68-15 14.919 0 8.24 6.716 14.92 15 14.92 8.284 0 15-6.68 15-14.92z" fill="#000"/><path d="M17 927c-8.271 0-15 6.693-15 14.919h30C32 933.693 25.271 927 17 927z" fill="#000"/><g filter="url(#filter1_d)"><path d="M28.426 941.919c0 6.267-5.126 11.365-11.426 11.365s-11.426-5.098-11.426-11.365c0-6.266 5.126-11.364 11.426-11.364s11.426 5.098 11.426 11.364z" fill="#000"/></g><path d="M17 930.555c-6.3 0-11.426 5.098-11.426 11.364h22.852c0-6.266-5.126-11.364-11.426-11.364zm64 125.365c0-8.24-6.716-14.92-15-14.92-8.284 0-15 6.68-15 14.92s6.716 14.92 15 14.92c8.284 0 15-6.68 15-14.92z" fill="#000"/><path d="M66 1041c-8.271 0-15 6.69-15 14.92h30c0-8.23-6.729-14.92-15-14.92z" fill="#000"/><g filter="url(#filter2_d)"><path d="M77.426 1055.92c0 6.27-5.126 11.36-11.426 11.36s-11.426-5.09-11.426-11.36S59.7 1044.56 66 1044.56s11.426 5.09 11.426 11.36z" fill="#000"/></g><path d="M66 1044.56c-6.3 0-11.426 5.09-11.426 11.36h22.852c0-6.27-5.126-11.36-11.426-11.36zM38 699.919C38 691.68 31.284 685 23 685c-8.284 0-15 6.68-15 14.919 0 8.24 6.716 14.92 15 14.92 8.284 0 15-6.68 15-14.92z" fill="#000"/><path d="M23 685c-8.271 0-15 6.693-15 14.919h30C38 691.693 31.271 685 23 685z" fill="#000"/><g filter="url(#filter3_d)"><path d="M34.426 699.919c0 6.266-5.126 11.365-11.426 11.365s-11.426-5.099-11.426-11.365S16.7 688.555 23 688.555s11.426 5.098 11.426 11.364z" fill="#000"/></g><path d="M23 688.555c-6.3 0-11.426 5.098-11.426 11.364h22.852c0-6.266-5.126-11.364-11.426-11.364zm62-109.636C85 570.68 78.284 564 70 564c-8.284 0-15 6.68-15 14.919 0 8.24 6.716 14.92 15 14.92 8.284 0 15-6.68 15-14.92z" fill="#000"/><path d="M70 564c-8.271 0-15 6.693-15 14.92h30c0-8.227-6.729-14.92-15-14.92z" fill="#000"/><g filter="url(#filter4_d)"><path d="M81.426 578.92c0 6.266-5.126 11.364-11.426 11.364s-11.426-5.098-11.426-11.364c0-6.267 5.126-11.365 11.426-11.365s11.426 5.098 11.426 11.365z" fill="#000"/></g><path d="M70 567.555c-6.3 0-11.426 5.098-11.426 11.365h22.852c0-6.267-5.126-11.365-11.426-11.365zM38 463.919C38 455.68 31.284 449 23 449c-8.284 0-15 6.68-15 14.919 0 8.24 6.716 14.92 15 14.92 8.284 0 15-6.68 15-14.92z" fill="#000"/><path d="M23 449c-8.271 0-15 6.693-15 14.919h30C38 455.693 31.271 449 23 449z" fill="#000"/><g filter="url(#filter5_d)"><path d="M34.426 463.919c0 6.266-5.126 11.365-11.426 11.365s-11.426-5.099-11.426-11.365S16.7 452.555 23 452.555s11.426 5.098 11.426 11.364z" fill="#000"/></g><path d="M23 452.555c-6.3 0-11.426 5.098-11.426 11.364h22.852c0-6.266-5.126-11.364-11.426-11.364zm62-106.636C85 337.68 78.284 331 70 331c-8.284 0-15 6.68-15 14.919 0 8.24 6.716 14.92 15 14.92 8.284 0 15-6.68 15-14.92z" fill="#000"/><path d="M70 331c-8.271 0-15 6.693-15 14.919h30C85 337.693 78.271 331 70 331z" fill="#000"/><g filter="url(#filter6_d)"><path d="M81.426 345.919c0 6.266-5.126 11.365-11.426 11.365s-11.426-5.099-11.426-11.365S63.7 334.555 70 334.555s11.426 5.098 11.426 11.364z" fill="#000"/></g><path d="M70 334.555c-6.3 0-11.426 5.098-11.426 11.364h22.852c0-6.266-5.126-11.364-11.426-11.364zm-36-98.636C34 227.68 27.284 221 19 221c-8.284 0-15 6.68-15 14.919 0 8.24 6.716 14.92 15 14.92 8.284 0 15-6.68 15-14.92z" fill="#000"/><path d="M19 221c-8.271 0-15 6.693-15 14.919h30C34 227.693 27.271 221 19 221z" fill="#000"/><g filter="url(#filter7_d)"><path d="M30.426 235.919c0 6.267-5.126 11.365-11.426 11.365s-11.426-5.098-11.426-11.365c0-6.266 5.126-11.364 11.426-11.364s11.426 5.098 11.426 11.364z" fill="#000"/></g><path d="M19 224.555c-6.3 0-11.426 5.098-11.426 11.364h22.852c0-6.266-5.126-11.364-11.426-11.364zm63-95.636C82 120.68 75.284 114 67 114c-8.284 0-15 6.68-15 14.919 0 8.24 6.716 14.92 15 14.92 8.284 0 15-6.68 15-14.92z" fill="#000"/><path d="M67 114c-8.271 0-15 6.693-15 14.919h30C82 120.693 75.271 114 67 114z" fill="#000"/><g filter="url(#filter8_d)"><path d="M78.426 128.919c0 6.266-5.126 11.365-11.426 11.365s-11.426-5.099-11.426-11.365S60.7 117.555 67 117.555s11.426 5.098 11.426 11.364z" fill="#000"/></g><path d="M67 117.555c-6.3 0-11.426 5.098-11.426 11.364h22.852c0-6.266-5.126-11.364-11.426-11.364zM38 14.92C38 6.68 31.284 0 23 0 14.716 0 8 6.68 8 14.92c0 8.239 6.716 14.919 15 14.919 8.284 0 15-6.68 15-14.92z" fill="#000"/><path d="M23 0C14.729 0 8 6.693 8 14.92h30C38 6.692 31.271 0 23 0z" fill="#000"/><g filter="url(#filter9_d)"><path d="M34.426 14.92c0 6.265-5.126 11.364-11.426 11.364s-11.426-5.099-11.426-11.365S16.7 3.555 23 3.555s11.426 5.098 11.426 11.364z" fill="#000"/></g><path d="M23 3.555c-6.3 0-11.426 5.098-11.426 11.364h22.852C34.426 8.653 29.3 3.555 23 3.555z" fill="#000"/><defs><filter id="filter0_d" x="54.574" y="812.555" width="32.852" height="32.728" filterUnits="userSpaceOnUse" color-interpolation-filters="sRGB"><feFlood flood-opacity="0" result="BackgroundImageFix"/><feColorMatrix in="SourceAlpha" values="0 0 0 0 0 0 0 0 0 0 0 0 0 0 0 0 0 0 127 0"/><feOffset dy="4"/><feGaussianBlur stdDeviation="2.5"/><feColorMatrix values="0 0 0 0 0 0 0 0 0 0 0 0 0 0 0 0 0 0 0.19 0"/><feBlend in2="BackgroundImageFix" result="effect1_dropShadow"/><feBlend in="SourceGraphic" in2="effect1_dropShadow" result="shape"/></filter><filter id="filter1_d" x=".574" y="929.555" width="32.852" height="32.728" filterUnits="userSpaceOnUse" color-interpolation-filters="sRGB"><feFlood flood-opacity="0" result="BackgroundImageFix"/><feColorMatrix in="SourceAlpha" values="0 0 0 0 0 0 0 0 0 0 0 0 0 0 0 0 0 0 127 0"/><feOffset dy="4"/><feGaussianBlur stdDeviation="2.5"/><feColorMatrix values="0 0 0 0 0 0 0 0 0 0 0 0 0 0 0 0 0 0 0.19 0"/><feBlend in2="BackgroundImageFix" result="effect1_dropShadow"/><feBlend in="SourceGraphic" in2="effect1_dropShadow" result="shape"/></filter><filter id="filter2_d" x="49.574" y="1043.56" width="32.852" height="32.728" filterUnits="userSpaceOnUse" color-interpolation-filters="sRGB"><feFlood flood-opacity="0" result="BackgroundImageFix"/><feColorMatrix in="SourceAlpha" values="0 0 0 0 0 0 0 0 0 0 0 0 0 0 0 0 0 0 127 0"/><feOffset dy="4"/><feGaussianBlur stdDeviation="2.5"/><feColorMatrix values="0 0 0 0 0 0 0 0 0 0 0 0 0 0 0 0 0 0 0.19 0"/><feBlend in2="BackgroundImageFix" result="effect1_dropShadow"/><feBlend in="SourceGraphic" in2="effect1_dropShadow" result="shape"/></filter><filter id="filter3_d" x="6.574" y="687.555" width="32.852" height="32.729" filterUnits="userSpaceOnUse" color-interpolation-filters="sRGB"><feFlood flood-opacity="0" result="BackgroundImageFix"/><feColorMatrix in="SourceAlpha" values="0 0 0 0 0 0 0 0 0 0 0 0 0 0 0 0 0 0 127 0"/><feOffset dy="4"/><feGaussianBlur stdDeviation="2.5"/><feColorMatrix values="0 0 0 0 0 0 0 0 0 0 0 0 0 0 0 0 0 0 0.19 0"/><feBlend in2="BackgroundImageFix" result="effect1_dropShadow"/><feBlend in="SourceGraphic" in2="effect1_dropShadow" result="shape"/></filter><filter id="filter4_d" x="53.574" y="566.555" width="32.852" height="32.729" filterUnits="userSpaceOnUse" color-interpolation-filters="sRGB"><feFlood flood-opacity="0" result="BackgroundImageFix"/><feColorMatrix in="SourceAlpha" values="0 0 0 0 0 0 0 0 0 0 0 0 0 0 0 0 0 0 127 0"/><feOffset dy="4"/><feGaussianBlur stdDeviation="2.5"/><feColorMatrix values="0 0 0 0 0 0 0 0 0 0 0 0 0 0 0 0 0 0 0.19 0"/><feBlend in2="BackgroundImageFix" result="effect1_dropShadow"/><feBlend in="SourceGraphic" in2="effect1_dropShadow" result="shape"/></filter><filter id="filter5_d" x="6.574" y="451.555" width="32.852" height="32.729" filterUnits="userSpaceOnUse" color-interpolation-filters="sRGB"><feFlood flood-opacity="0" result="BackgroundImageFix"/><feColorMatrix in="SourceAlpha" values="0 0 0 0 0 0 0 0 0 0 0 0 0 0 0 0 0 0 127 0"/><feOffset dy="4"/><feGaussianBlur stdDeviation="2.5"/><feColorMatrix values="0 0 0 0 0 0 0 0 0 0 0 0 0 0 0 0 0 0 0.19 0"/><feBlend in2="BackgroundImageFix" result="effect1_dropShadow"/><feBlend in="SourceGraphic" in2="effect1_dropShadow" result="shape"/></filter><filter id="filter6_d" x="53.574" y="333.555" width="32.852" height="32.729" filterUnits="userSpaceOnUse" color-interpolation-filters="sRGB"><feFlood flood-opacity="0" result="BackgroundImageFix"/><feColorMatrix in="SourceAlpha" values="0 0 0 0 0 0 0 0 0 0 0 0 0 0 0 0 0 0 127 0"/><feOffset dy="4"/><feGaussianBlur stdDeviation="2.5"/><feColorMatrix values="0 0 0 0 0 0 0 0 0 0 0 0 0 0 0 0 0 0 0.19 0"/><feBlend in2="BackgroundImageFix" result="effect1_dropShadow"/><feBlend in="SourceGraphic" in2="effect1_dropShadow" result="shape"/></filter><filter id="filter7_d" x="2.574" y="223.555" width="32.852" height="32.729" filterUnits="userSpaceOnUse" color-interpolation-filters="sRGB"><feFlood flood-opacity="0" result="BackgroundImageFix"/><feColorMatrix in="SourceAlpha" values="0 0 0 0 0 0 0 0 0 0 0 0 0 0 0 0 0 0 127 0"/><feOffset dy="4"/><feGaussianBlur stdDeviation="2.5"/><feColorMatrix values="0 0 0 0 0 0 0 0 0 0 0 0 0 0 0 0 0 0 0.19 0"/><feBlend in2="BackgroundImageFix" result="effect1_dropShadow"/><feBlend in="SourceGraphic" in2="effect1_dropShadow" result="shape"/></filter><filter id="filter8_d" x="50.574" y="116.555" width="32.852" height="32.729" filterUnits="userSpaceOnUse" color-interpolation-filters="sRGB"><feFlood flood-opacity="0" result="BackgroundImageFix"/><feColorMatrix in="SourceAlpha" values="0 0 0 0 0 0 0 0 0 0 0 0 0 0 0 0 0 0 127 0"/><feOffset dy="4"/><feGaussianBlur stdDeviation="2.5"/><feColorMatrix values="0 0 0 0 0 0 0 0 0 0 0 0 0 0 0 0 0 0 0.19 0"/><feBlend in2="BackgroundImageFix" result="effect1_dropShadow"/><feBlend in="SourceGraphic" in2="effect1_dropShadow" result="shape"/></filter><filter id="filter9_d" x="6.574" y="2.555" width="32.852" height="32.729" filterUnits="userSpaceOnUse" color-interpolation-filters="sRGB"><feFlood flood-opacity="0" result="BackgroundImageFix"/><feColorMatrix in="SourceAlpha" values="0 0 0 0 0 0 0 0 0 0 0 0 0 0 0 0 0 0 127 0"/><feOffset dy="4"/><feGaussianBlur stdDeviation="2.5"/><feColorMatrix values="0 0 0 0 0 0 0 0 0 0 0 0 0 0 0 0 0 0 0.19 0"/><feBlend in2="BackgroundImageFix" result="effect1_dropShadow"/><feBlend in="SourceGraphic" in2="effect1_dropShadow" result="shape"/></filter></defs></svg>