<svg width="98" height="98" fill="none" xmlns="http://www.w3.org/2000/svg"><g clip-path="url(#clip0)" fill="#000"><path d="M92.829 39.786C95.963 37.398 98 33.636 98 29.4c0-7.205-5.862-13.067-13.067-13.067-7.204 0-13.066 5.862-13.066 13.067 0 3.904 1.73 7.404 4.452 9.8h-8.676L56.688 28.245a1.631 1.631 0 00-2.31 0l-6.533 6.534a1.632 1.632 0 000 2.31l14.7 14.7c.306.306.72.478 1.155.478h13.067V63.7H48.784l8.108-12.16-2.718-1.812L44.86 63.7h-4.026v-8.167c0-.903-.73-1.633-1.633-1.633H26.133v-6.533c0-3.443-2.15-6.382-5.17-7.58 3.134-2.389 5.17-6.15 5.17-10.387 0-7.205-5.862-13.067-13.066-13.067C5.862 16.333 0 22.195 0 29.4c0 4.237 2.037 7.998 5.171 10.386C2.15 40.986 0 43.924 0 47.366v22.867C0 74.737 3.664 78.4 8.167 78.4V98h3.266V78.4h11.434v17.967c0 .903.73 1.633 1.633 1.633h11.433c.904 0 1.634-.73 1.634-1.633v-24.5c0-1.838-.61-3.535-1.637-4.9h11.437v27.766h-6.534V98h16.334v-3.267h-6.534V66.967H62.11c-1.037 1.368-1.676 3.054-1.676 4.9v24.5c0 .903.73 1.633 1.634 1.633H73.5c.903 0 1.633-.73 1.633-1.633V78.4h11.434V98h3.266V78.4c4.503 0 8.167-3.663 8.167-8.167V47.367c0-3.443-2.15-6.382-5.171-7.58zM3.267 29.4c0-5.405 4.395-9.8 9.8-9.8 5.404 0 9.8 4.395 9.8 9.8 0 5.405-4.396 9.8-9.8 9.8-5.405 0-9.8-4.395-9.8-9.8zm34.3 34.3H16.333V50.633h-3.266v14.7c0 .904.73 1.634 1.633 1.634h14.7c2.702 0 4.9 2.198 4.9 4.9v22.866h-8.167V76.767c0-.903-.73-1.634-1.633-1.634H8.167a4.906 4.906 0 01-4.9-4.9V47.367c0-2.702 2.198-4.9 4.9-4.9h9.8c2.701 0 4.9 2.198 4.9 4.9v8.166c0 .904.73 1.634 1.633 1.634h13.067V63.7zm37.566-34.3c0-5.405 4.396-9.8 9.8-9.8 5.405 0 9.8 4.395 9.8 9.8 0 5.405-4.395 9.8-9.8 9.8-5.404 0-9.8-4.395-9.8-9.8zm19.6 40.833c0 2.702-2.198 4.9-4.9 4.9H73.5c-.903 0-1.633.73-1.633 1.634v17.966H63.7V71.867c0-2.702 2.198-4.9 4.9-4.9h9.8c.903 0 1.633-.73 1.633-1.634v-14.7c0-.903-.73-1.633-1.633-1.633H64.376L51.31 35.933l4.224-4.223 10.279 10.278c.305.307.72.479 1.155.479h22.866c2.702 0 4.9 2.198 4.9 4.9v22.866z"/><path d="M65.333 0H32.667a4.906 4.906 0 00-4.9 4.9v13.067c0 2.701 2.198 4.9 4.9 4.9H34.3v9.8a1.632 1.632 0 002.788 1.154l10.955-10.954h17.29c2.702 0 4.9-2.199 4.9-4.9V4.9c0-2.702-2.198-4.9-4.9-4.9zm1.634 17.967c0 .901-.732 1.633-1.634 1.633H47.367c-.435 0-.85.171-1.155.479l-8.645 8.645v-7.49c0-.904-.73-1.634-1.634-1.634h-3.266a1.634 1.634 0 01-1.634-1.633V4.9c0-.902.732-1.633 1.634-1.633h32.666c.902 0 1.634.731 1.634 1.633v13.067z"/><path d="M44.1 6.533h-9.8V9.8h9.8V6.533zm19.6 6.534H34.3v3.266h29.4v-3.266zm0-6.534H47.367V9.8H63.7V6.533z"/></g><defs><clipPath id="clip0"><path fill="#fff" d="M0 0h98v98H0z"/></clipPath></defs></svg>