<svg width="98" height="98" fill="none" xmlns="http://www.w3.org/2000/svg"><path d="M8.105 83.77a1.53 1.53 0 001.082.449h19.907c.406 0 .795-.162 1.083-.449l3.51-3.51v13.146a1.531 1.531 0 001.532 1.531H62.78a1.531 1.531 0 001.532-1.53V80.258l3.51 3.511c.288.287.677.449 1.083.449h19.906c.407 0 .796-.162 1.083-.449l4.594-4.593c.287-.288.448-.677.448-1.083V73.5a1.531 1.531 0 00-1.53-1.531H87.28a1.531 1.531 0 00-1.531-1.531h-3.063a1.53 1.53 0 00-1.273.681L79.2 74.44l-7.612-5.075-3.471-6.074a13.708 13.708 0 00-8.18-6.414l-3.476-.993a9.135 9.135 0 001.727-5.352v-7.656a7.895 7.895 0 00-5.406-7.5l-4.017-1.338a6.801 6.801 0 00-8.953 6.452v10.04a9.135 9.135 0 001.727 5.352l-3.476.993a13.708 13.708 0 00-8.18 6.414l-3.47 6.074-7.613 5.075-2.213-3.32a1.53 1.53 0 00-1.274-.681H12.25a1.531 1.531 0 00-1.531 1.53H4.594A1.531 1.531 0 003.062 73.5v4.594c0 .406.162.795.449 1.083l4.594 4.593zm73.051-6.744l2.351-3.526h.712v4.594h3.062V75.03h4.594v2.428l-3.697 3.697h-7.022v-4.13zM42.875 40.49a3.739 3.739 0 014.92-3.547l4.02 1.34a4.836 4.836 0 013.062 3.062H42.875v-.855zm0 3.917h12.25v6.125a6.125 6.125 0 11-12.25 0v-6.125zm5.85 21.438h.55l2.657 13.278L49 82.053l-2.931-2.931 2.655-13.278zm-1.515-6.302a9.167 9.167 0 003.58 0l-1.295 3.24h-.99l-1.295-3.24zm-27.304 17.84l8.506-5.67c.198-.132.362-.308.48-.515l3.65-6.388a10.66 10.66 0 016.362-4.988l4.594-1.313 2.38 5.95-2.973 14.867a1.532 1.532 0 00.418 1.383l4.594 4.594a1.531 1.531 0 002.166 0l4.594-4.594a1.53 1.53 0 00.418-1.383L52.122 64.46l2.38-5.95 4.594 1.312a10.66 10.66 0 016.362 4.988l3.65 6.388c.118.207.282.383.48.514l8.506 5.671v3.774H69.54l-5.677-5.676a1.531 1.531 0 00-2.614 1.082v15.313h-24.5V76.562a1.53 1.53 0 00-2.614-1.082l-5.677 5.676h-8.553v-3.774zm-13.781-2.35h4.594v3.062h3.062V73.5h.712l2.35 3.526v4.13h-7.02L6.125 77.46v-2.428z" fill="#000"/><path d="M4.594 62.781h4.593v4.594a1.531 1.531 0 001.532 1.531h12.25a1.531 1.531 0 001.531-1.531v-4.594h4.594a1.531 1.531 0 001.531-1.531v-6.125a7.665 7.665 0 00-7.656-7.656h-12.25a7.665 7.665 0 00-7.656 7.656v6.125a1.531 1.531 0 001.53 1.531zm16.843 3.063H12.25v-6.125a4.594 4.594 0 119.188 0v6.125zM6.126 55.125a4.6 4.6 0 014.594-4.594h12.25a4.6 4.6 0 014.593 4.594v4.594H24.5a7.656 7.656 0 10-15.313 0H6.126v-4.594z" fill="#000"/><path d="M16.844 62.781a1.531 1.531 0 100-3.062 1.531 1.531 0 000 3.062zm62.781-22.968a4.6 4.6 0 00-4.594 4.593v18.375a4.6 4.6 0 004.594 4.594h9.188a4.599 4.599 0 004.593-4.594V44.406a4.599 4.599 0 00-4.594-4.593h-9.187zm10.719 4.593v18.375a1.533 1.533 0 01-1.531 1.532h-9.188a1.533 1.533 0 01-1.531-1.532V44.406a1.533 1.533 0 011.531-1.531h.897l1.083 1.083a1.53 1.53 0 001.082.448h3.063c.406 0 .796-.161 1.083-.448l1.083-1.083h.897a1.533 1.533 0 011.53 1.531zm-76.563 0h18.375a4.599 4.599 0 004.594-4.593v-20.17a4.564 4.564 0 00-1.345-3.248l-5.863-5.862a4.563 4.563 0 00-3.248-1.345H13.781a4.6 4.6 0 00-4.594 4.593v26.031a4.599 4.599 0 004.594 4.594zm15.313-29.99l2.428 2.428h-2.428v-2.428zM12.25 13.78a1.533 1.533 0 011.531-1.531h12.25v6.125a1.532 1.532 0 001.532 1.531h6.125v19.907a1.533 1.533 0 01-1.532 1.53H13.781a1.534 1.534 0 01-1.531-1.53V13.78z" fill="#000"/><path d="M30.625 35.219H15.312v3.062h15.313V35.22zm0-6.125h-9.188v3.062h9.188v-3.062zm-12.25 0h-3.063v3.062h3.063v-3.062zm12.25-6.125h-4.594v3.062h4.594V22.97zm-7.656 0h-7.657v3.062h7.657V22.97zm0-6.125h-7.657v3.062h7.657v-3.062zm58.424-9.633l-1.976-3.389a1.53 1.53 0 00-2.406-.31L61.874 18.647l-5.902 2.951c-.221.11-.412.273-.556.473l-.013.017-.002.003-3.606 4.988a1.532 1.532 0 00-.129 1.582l2.09 4.18a1.53 1.53 0 001.37.846h5.178l5.702 11.403a1.531 1.531 0 002.054.685l3.063-1.531a1.532 1.532 0 00.846-1.37v-7.656c0-.238-.055-.472-.162-.685l-2.237-4.475 19.664-5.618a1.532 1.532 0 00.901-2.244l-2.703-4.634.224-.149A5.99 5.99 0 0081.393 7.21zM56.072 30.625l-1.252-2.503 1.597-2.208 2.356 4.711h-2.701zm2.639-6.971l3.386-1.693 3.224 6.448-3.386 1.693-3.224-6.448zm10.195 18.275l-.846.423-4.755-9.51 3.385-1.694 2.216 4.432v6.349zm-.73-14.657l-3.531-7.063L77.772 7.08l8.725 14.957-18.32 5.234zm18.667-16.349a2.925 2.925 0 01-.886 3.943l-.07.047-2.95-5.056a2.925 2.925 0 013.906 1.066z" fill="#000"/></svg>