<svg width="98" height="98" fill="none" xmlns="http://www.w3.org/2000/svg"><path d="M91.866 52.5c-2.923-2.612-6.856-3.85-10.779-3.411-6.203.701-11.277 5.7-12.066 11.887-.684 5.374 1.712 10.515 6.254 13.417.793.507 1.286 1.485 1.286 2.552v2.68a6.131 6.131 0 006.125 6.125 6.131 6.131 0 006.125-6.125v-2.743c0-1.04.493-1.98 1.32-2.51a13.727 13.727 0 006.338-11.59A13.8 13.8 0 0091.866 52.5zm-9.178 30.187a3.066 3.066 0 01-3.063-3.062h6.125a3.066 3.066 0 01-3.063 3.062zm-1.532-19.906c0-.845.688-1.531 1.531-1.531.844 0 1.532.686 1.532 1.531 0 .845-.688 1.531-1.531 1.531a1.533 1.533 0 01-1.532-1.53zm7.32 9.016c-1.619 1.04-2.608 2.807-2.708 4.765h-1.55v-9.469c1.779-.634 3.063-2.318 3.063-4.312a4.6 4.6 0 00-4.594-4.594 4.6 4.6 0 00-4.593 4.594c0 1.994 1.285 3.678 3.062 4.312v9.47h-1.554c-.113-1.977-1.089-3.735-2.678-4.752-3.534-2.259-5.398-6.261-4.865-10.448.613-4.803 4.554-8.685 9.371-9.229.426-.049.85-.073 1.27-.073 2.641 0 5.134.945 7.123 2.722a10.737 10.737 0 013.583 7.998c0 3.66-1.843 7.03-4.93 9.016zM24.49 52.5c-2.922-2.612-6.851-3.85-10.778-3.411-6.203.701-11.277 5.7-12.066 11.887C.962 66.35 3.358 71.49 7.9 74.393c.794.507 1.288 1.485 1.288 2.552v2.68a6.131 6.131 0 006.124 6.125 6.131 6.131 0 006.126-6.125v-2.743c0-1.04.493-1.98 1.32-2.51a13.729 13.729 0 006.336-11.59A13.8 13.8 0 0024.49 52.5zm-9.177 30.187a3.066 3.066 0 01-3.063-3.062h6.125a3.066 3.066 0 01-3.063 3.062zM13.78 62.781c0-.845.688-1.531 1.531-1.531.844 0 1.532.686 1.532 1.531a1.533 1.533 0 01-3.063 0zm7.32 9.016c-1.619 1.04-2.608 2.807-2.708 4.765h-1.55v-9.469c1.779-.634 3.063-2.318 3.063-4.312a4.6 4.6 0 00-4.593-4.594 4.6 4.6 0 00-4.594 4.594c0 1.994 1.285 3.678 3.062 4.312v9.47h-1.554c-.113-1.977-1.089-3.735-2.678-4.752-3.534-2.259-5.398-6.261-4.865-10.448.613-4.803 4.554-8.685 9.371-9.229.426-.049.85-.073 1.27-.073 2.641 0 5.134.945 7.123 2.722a10.737 10.737 0 013.583 7.998c0 3.66-1.843 7.03-4.93 9.016zM49 19.906a4.27 4.27 0 00-3.641 2.017L38.28 33.248V85.75c0 5.91 4.808 10.719 10.719 10.719 5.91 0 10.719-4.81 10.719-10.719V33.248L52.64 21.923A4.27 4.27 0 0049 19.906zm-1.044 3.642c.451-.725 1.635-.725 2.087 0l5.952 9.522-3.632 1.816L49 31.522l-3.364 3.364-3.632-1.816 5.952-9.522zm-6.612 12.617l3.062 1.531v43.46h-3.062v-44.99zm6.125 1.219L49 35.853l1.531 1.53v43.773H47.47V37.384zm6.125.312l3.062-1.53v44.99h-3.062v-43.46zM49 93.406c-4.222 0-7.656-3.434-7.656-7.656v-1.531h15.312v1.531c0 4.222-3.434 7.656-7.656 7.656z" fill="#000"/><path d="M7.656 13.781c2.845 0 5.223-1.958 5.908-4.594h29.311v2.075c-16.508 2.91-29.094 17.345-29.094 34.675h3.063c0-17.73 14.424-32.156 32.156-32.156s32.156 14.426 32.156 32.157h3.063c0-17.331-12.586-31.766-29.094-34.676V9.187h29.311c.685 2.636 3.063 4.594 5.908 4.594a6.131 6.131 0 006.125-6.125 6.131 6.131 0 00-6.125-6.125c-2.845 0-5.223 1.959-5.908 4.594H55.125V1.531h-12.25v4.594H13.564C12.879 3.49 10.5 1.531 7.656 1.531a6.131 6.131 0 00-6.125 6.125 6.131 6.131 0 006.125 6.125zm82.688-9.187a3.066 3.066 0 013.062 3.062 3.066 3.066 0 01-3.062 3.063 3.066 3.066 0 01-3.063-3.063 3.066 3.066 0 013.063-3.062zm-44.406 0h6.124v6.125h-6.124V4.594zm-38.282 0a3.066 3.066 0 013.063 3.062 3.066 3.066 0 01-3.063 3.063 3.066 3.066 0 01-3.062-3.063 3.066 3.066 0 013.062-3.062z" fill="#000"/></svg>