<svg width="98" height="98" fill="none" xmlns="http://www.w3.org/2000/svg"><g clip-path="url(#clip0)" fill="#000"><path d="M15.236 49.712l5.114-2.431 3.6 1.491 1.896 5.335a1.532 1.532 0 001.442 1.018h6.674a1.531 1.531 0 001.442-1.018l1.898-5.335 3.6-1.491 5.113 2.43a1.533 1.533 0 001.74-.3l4.719-4.718a1.531 1.531 0 00.3-1.74l-2.43-5.114 1.49-3.6 5.335-1.896a1.531 1.531 0 001.019-1.444v-6.673a1.531 1.531 0 00-1.019-1.443l-5.334-1.897-1.492-3.6 2.431-5.114a1.531 1.531 0 00-.3-1.74l-4.718-4.719a1.531 1.531 0 00-1.74-.3l-5.114 2.431-3.6-1.491-1.898-5.335A1.531 1.531 0 0033.962 0h-6.674a1.531 1.531 0 00-1.442 1.018l-1.898 5.335-3.6 1.491-5.112-2.43a1.531 1.531 0 00-1.742.3l-4.718 4.718a1.531 1.531 0 00-.3 1.741l2.43 5.114-1.49 3.6-5.335 1.896a1.531 1.531 0 00-1.019 1.443v6.673a1.531 1.531 0 001.019 1.443l5.334 1.897 1.492 3.6-2.431 5.114a1.531 1.531 0 00.3 1.74l4.718 4.718a1.533 1.533 0 001.742.3zm-1.24-12.417l-2.012-4.857a1.53 1.53 0 00-.902-.856l-4.957-1.763v-4.513l4.957-1.763a1.531 1.531 0 00.902-.857l2.012-4.857a1.532 1.532 0 00-.031-1.244l-2.259-4.752 3.19-3.19 4.753 2.259a1.53 1.53 0 001.244.031l4.857-2.012a1.53 1.53 0 00.855-.901l1.764-4.957h4.512l1.764 4.957a1.53 1.53 0 00.856.901l4.857 2.013a1.529 1.529 0 001.244-.032l4.753-2.258 3.19 3.19-2.259 4.753a1.533 1.533 0 00-.031 1.244l2.012 4.857a1.528 1.528 0 00.9.855l4.958 1.763v4.512l-4.957 1.764a1.531 1.531 0 00-.902.857l-2.012 4.856a1.532 1.532 0 00.031 1.245l2.259 4.752-3.19 3.19-4.753-2.258a1.53 1.53 0 00-1.244-.032l-4.858 2.013a1.528 1.528 0 00-.855.9l-1.763 4.958H28.37l-1.764-4.958a1.531 1.531 0 00-.856-.901l-4.857-2.013a1.529 1.529 0 00-1.244.032l-4.753 2.258-3.19-3.19 2.26-4.752a1.53 1.53 0 00.031-1.244z"/><path d="M30.625 41.344a13.782 13.782 0 10-13.781-13.782 13.797 13.797 0 0013.781 13.782zm0-24.5a10.719 10.719 0 11-10.719 10.718 10.731 10.731 0 0110.719-10.718zm29.63 56.938l-2.012 4.857a1.531 1.531 0 00.032 1.244l2.258 4.753-3.19 3.19-4.753-2.258a1.53 1.53 0 00-1.244-.032l-4.855 2.01a1.533 1.533 0 00-.857.902l-1.764 4.958h-4.51l-1.763-4.957a1.529 1.529 0 00-.857-.902l-4.857-2.012a1.53 1.53 0 00-1.244.032l-4.753 2.258-3.19-3.19 2.258-4.753a1.53 1.53 0 00.032-1.244l-2.012-4.857a1.531 1.531 0 00-.9-.855l-4.958-1.763V66.65l4.958-1.763a1.532 1.532 0 00.901-.857l2.012-4.857a1.532 1.532 0 00-.031-1.244l-2.724-5.728-2.765 1.316 2.431 5.114-1.49 3.6-5.336 1.897a1.531 1.531 0 00-1.018 1.442v6.674a1.531 1.531 0 001.018 1.443l5.335 1.897 1.491 3.6-2.43 5.113a1.531 1.531 0 00.3 1.74l4.718 4.718a1.532 1.532 0 001.74.3l5.114-2.43 3.598 1.49 1.898 5.336a1.53 1.53 0 001.443 1.018h6.674a1.53 1.53 0 001.443-1.018l1.897-5.335 3.6-1.491 5.113 2.43a1.531 1.531 0 001.74-.3l4.719-4.718a1.532 1.532 0 00.3-1.74l-2.43-5.114 1.75-4.228-2.83-1.173zm3.209-22.007l-4.72-4.718a1.53 1.53 0 00-1.74-.3l-5.728 2.723 1.315 2.766 4.753-2.259 3.19 3.191-2.258 4.752a1.533 1.533 0 00-.032 1.245l1.737 4.194 2.83-1.172-1.477-3.566 2.43-5.114a1.531 1.531 0 00-.3-1.742z"/><path d="M41.615 82.688a13.78 13.78 0 10-13.782-13.782 13.797 13.797 0 0013.782 13.781zm0-24.5a10.72 10.72 0 11-10.719 10.718 10.73 10.73 0 0110.719-10.719zM93.92 27.377l-5.335-1.897-1.491-3.6 2.43-5.114a1.53 1.53 0 00-.3-1.74l-4.718-4.719a1.531 1.531 0 00-1.74-.3l-5.114 2.43-3.6-1.49-1.897-5.335a1.532 1.532 0 00-1.443-1.018h-6.674a1.531 1.531 0 00-1.442 1.018l-1.897 5.335-4.229 1.752 1.172 2.829 4.857-2.012a1.532 1.532 0 00.857-.902l1.762-4.958h4.513l1.764 4.958a1.532 1.532 0 00.856.901l4.857 2.013a1.529 1.529 0 001.244-.032l4.753-2.258 3.19 3.19-2.258 4.752a1.534 1.534 0 00-.032 1.245l2.012 4.857a1.532 1.532 0 00.9.855l4.958 1.763v4.512l-4.957 1.764a1.53 1.53 0 00-.902.857l-2.012 4.856a1.532 1.532 0 00.031 1.244l2.259 4.753-3.955 3.954 2.167 2.165 4.718-4.718a1.531 1.531 0 00.3-1.74l-2.43-5.114 1.49-3.6 5.336-1.897a1.53 1.53 0 001.018-1.443v-6.674a1.531 1.531 0 00-1.018-1.442z"/><path d="M67.375 42.875a10.68 10.68 0 01-9.94-6.7l-2.839 1.15a13.781 13.781 0 105.887-17.106l1.534 2.651a10.718 10.718 0 115.358 20.005zm17.369 15.313h-5.119v-6.126a4.594 4.594 0 00-9.187 0V65.21l-1.029-1.029a4.78 4.78 0 00-6.76 6.76l7.789 7.787v2.428h-1.532a1.531 1.531 0 00-1.53 1.531V96.47h3.062V84.22h18.375v12.25h3.062V82.688a1.531 1.531 0 00-1.531-1.532h-1.531v-2.428l3.139-3.14a10.193 10.193 0 00-7.208-17.4zm5.043 15.235l-3.588 3.588a1.532 1.532 0 00-.449 1.083v3.062H73.5v-3.062a1.53 1.53 0 00-.448-1.083l-8.236-8.236a1.72 1.72 0 01-.011-2.439 1.719 1.719 0 012.439.01l3.642 3.643a1.532 1.532 0 002.614-1.083V52.062a1.531 1.531 0 113.063 0v7.657a1.531 1.531 0 001.53 1.531h6.651a7.13 7.13 0 015.043 12.173z"/><path d="M82.688 87.281h3.062v3.063h-3.063V87.28z"/></g><defs><clipPath id="clip0"><path fill="#fff" d="M0 0h98v98H0z"/></clipPath></defs></svg>