<svg width="98" height="98" fill="none" xmlns="http://www.w3.org/2000/svg"><path d="M12.221 27.185H41.31l6.063 6.063a2.173 2.173 0 002.374.473 2.172 2.172 0 001.345-2.013v-4.83a5.676 5.676 0 003.812-5.34V5.648A5.653 5.653 0 0049.257 0H12.221a5.653 5.653 0 00-5.647 5.647v1.16a1.435 1.435 0 102.871 0v-1.16a2.78 2.78 0 012.776-2.776h37.036a2.78 2.78 0 012.776 2.776v15.89a2.786 2.786 0 01-2.198 2.716 2.05 2.05 0 00-1.614 2.002v3.78l-5.121-5.12a2.035 2.035 0 00-1.45-.601H12.221a2.78 2.78 0 01-2.776-2.776V13.53a1.435 1.435 0 10-2.87 0v8.007a5.653 5.653 0 005.646 5.647z" fill="#000"/><path d="M96.564 66.216c.793 0 1.436-.643 1.436-1.436v-1.105c0-4.41-2.955-8.356-7.185-9.598L83.03 51.79a2.857 2.857 0 00-.768-.504l-1.624-.723a3.415 3.415 0 00-1.346-.296v-3.416a11.842 11.842 0 004.733-8.059 3.07 3.07 0 002.232-2.949V25.571A4.534 4.534 0 0082 21.05a4.534 4.534 0 00-4.512-4.146H66.83c-4.717 0-8.554 3.837-8.554 8.554v10.385a3.07 3.07 0 002.232 2.95 11.845 11.845 0 004.733 8.058v3.41a3.41 3.41 0 00-1.332.3l-1.592.714c-.283.127-.54.298-.762.502l-7.83 2.299c-4.232 1.241-7.187 5.189-7.187 9.598v7.796a9.756 9.756 0 00-3.429-1.807c-.126-.037.61.112-11.177-2.135v-.031a37.437 37.437 0 005.5-1.45c3.986-1.385 6.58-5.485 4.55-12.26a24.053 24.053 0 01-1.014-6.906c-.002-8.768-7.138-15.902-15.906-15.902-8.767 0-15.903 7.134-15.906 15.908 0 2.339-.341 4.66-1.012 6.9-2.01 6.707.503 10.855 4.548 12.26a37.432 37.432 0 005.496 1.45c-11.736 2.271-11.049 2.13-11.172 2.166C2.886 70.877 0 74.732 0 79.038V92.59A5.407 5.407 0 005.41 98h.01l87.17-.088a5.416 5.416 0 005.41-5.41v-21.01a1.435 1.435 0 10-2.871 0v3.32h-16.78l-2.54-11.325 1.374-2.463a2.975 2.975 0 001.5-.78l4.41-4.297c.284-.275.502-.6.648-.955l6.265 1.84a7.171 7.171 0 015.123 6.843v1.105c0 .793.642 1.436 1.435 1.436zM61.147 25.459a5.689 5.689 0 015.683-5.683h10.658a1.66 1.66 0 011.657 1.657 2.483 2.483 0 002.48 2.48h.104a1.66 1.66 0 011.658 1.658v5.318h-.702a.717.717 0 01-.716-.716v-1.178c0-2.537-2.491-4.307-4.871-3.52a15.498 15.498 0 01-9.662-.001c-2.402-.794-4.87.991-4.87 3.52v1.179a.717.717 0 01-.717.716h-.701v-5.43zm2.158 12.428a1.976 1.976 0 00-1.965-1.85.193.193 0 01-.193-.193V33.76h.702a3.592 3.592 0 003.587-3.587v-1.179a.835.835 0 011.103-.793 18.381 18.381 0 0011.46 0 .835.835 0 011.098.794v1.177a3.592 3.592 0 003.588 3.588h.702v2.084a.193.193 0 01-.193.193c-1.037 0-1.9.813-1.966 1.85-.297 4.715-4.233 8.408-8.961 8.408-4.728 0-8.664-3.693-8.962-8.408zm10.14 23.944h-2.381l-.924-1.588 2.236-1.868 2.03 1.736-.96 1.72zm1.961 12.981h-6.285l2.267-10.11h1.75l2.268 10.11zm-3.035-20.12l-4.258-3.182v-3.097a11.78 11.78 0 004.154.754 11.78 11.78 0 004.155-.754v3.142l-4.051 3.137zm-7.285-1.512a.542.542 0 01.546.06l4.44 3.318-2.063 1.724a.09.09 0 01-.035.018l-.018.002a.087.087 0 01-.062-.022l-4.385-4.392 1.576-.708zM13.633 63.335c-3.629-1.26-3.839-5.057-2.74-8.723a26.921 26.921 0 001.134-7.73c.002-7.185 5.85-13.03 13.035-13.03 7.185 0 13.032 5.845 13.035 13.037a26.9 26.9 0 001.133 7.723c1.1 3.666.89 7.463-2.74 8.723a34.99 34.99 0 01-22.857 0zm15.427 4.578v.508c-1.572 3.384-6.451 3.37-8.001-.03v-.478a38.04 38.04 0 008.002 0zm18.193 26.76a.37.37 0 01-.356.37h-.018a.996.996 0 00-.032.002l-41.433.084H5.41a2.538 2.538 0 01-2.54-2.539V79.037a6.935 6.935 0 014.892-6.6l11.06-2.137c2.782 4.7 9.687 4.687 12.473.031l11.07 2.108a6.899 6.899 0 014.89 6.598v15.637zm2.156-30.998a7.171 7.171 0 015.123-6.843l6.314-1.854c.142.342.35.657.618.926l4.41 4.416.014.015c.41.4.908.658 1.431.772l1.395 2.395-2.537 11.31H49.41V63.675zm45.719 14.008v14.82c0 1.4-1.139 2.538-2.539 2.538H50.105c.014-.12.02-.243.02-.368V79.036c0-.454-.031-.906-.094-1.353H95.13zM76.686 58.18a.087.087 0 01-.06.024 2.029 2.029 0 00-.034-.007.088.088 0 01-.023-.014l-1.91-1.632 4.259-3.297a.541.541 0 01.553-.067l1.607.716-4.392 4.277z" fill="#000"/></svg>