<svg width="98" height="98" fill="none" xmlns="http://www.w3.org/2000/svg"><path d="M34.891 60.156l2.953 2.952a2.614 2.614 0 003.698 0l1.848-1.847c.296.135.6.261.907.375v2.613a2.618 2.618 0 002.615 2.616h4.175a2.618 2.618 0 002.615-2.616v-2.613c.307-.114.611-.24.907-.375l1.848 1.848a2.619 2.619 0 003.699 0l2.952-2.953a2.619 2.619 0 000-3.698L61.26 54.61c.136-.297.262-.6.376-.907h2.613a2.618 2.618 0 002.615-2.615v-4.175a2.618 2.618 0 00-2.615-2.616h-2.613c-.114-.306-.24-.61-.376-.907l1.848-1.848a2.619 2.619 0 000-3.698l-2.953-2.952a2.618 2.618 0 00-3.698 0l-1.848 1.848c-.296-.136-.6-.262-.907-.376v-2.613a2.618 2.618 0 00-2.615-2.615h-4.175a2.618 2.618 0 00-2.615 2.615v2.613c-.307.114-.611.24-.907.376l-1.848-1.848a2.613 2.613 0 00-3.698 0l-2.953 2.952a2.619 2.619 0 000 3.699l1.848 1.847a13.3 13.3 0 00-.375.907H33.75a2.618 2.618 0 00-2.615 2.616v4.175a2.618 2.618 0 002.615 2.615h2.614c.114.307.24.61.375.907l-1.848 1.848a2.619 2.619 0 000 3.698zm1.653-9.324h-2.538v-3.664h2.538a2.615 2.615 0 002.46-1.73c.12-.336.257-.667.408-.986a2.615 2.615 0 00-.515-2.965l-1.794-1.794 2.59-2.59 1.794 1.794c.78.78 1.971.987 2.965.515a10.6 10.6 0 01.985-.408 2.615 2.615 0 001.731-2.46v-2.537h3.664v2.537c0 1.103.696 2.091 1.73 2.46.336.12.667.256.986.408a2.615 2.615 0 002.965-.515l1.794-1.794 2.59 2.59-1.794 1.794a2.615 2.615 0 00-.515 2.965c.152.32.289.65.408.985a2.614 2.614 0 002.46 1.731h2.538v3.664h-2.538a2.614 2.614 0 00-2.46 1.73c-.12.335-.256.667-.408.986a2.616 2.616 0 00.515 2.964l1.794 1.795-2.59 2.59-1.795-1.795a2.616 2.616 0 00-2.964-.514c-.32.151-.65.289-.985.408a2.614 2.614 0 00-1.731 2.46v2.537h-3.664v-2.537a2.614 2.614 0 00-1.73-2.46c-.335-.12-.667-.257-.986-.408a2.615 2.615 0 00-2.965.514l-1.794 1.795-2.59-2.59 1.794-1.795c.78-.78.987-1.97.515-2.965-.151-.318-.289-.65-.408-.984a2.615 2.615 0 00-2.46-1.731z" fill="#000"/><path d="M49 56.662c4.225 0 7.662-3.437 7.662-7.662S53.225 41.338 49 41.338 41.338 44.775 41.338 49s3.437 7.662 7.662 7.662zm0-12.453c2.642 0 4.79 2.15 4.79 4.79A4.796 4.796 0 0149 53.791 4.796 4.796 0 0144.209 49c0-2.642 2.15-4.79 4.79-4.79zm-30.966-8.141c9.97 0 18.034-8.102 18.034-18.034C36.068 8.09 27.978 0 18.034 0 8.09 0 0 8.09 0 18.034c0 9.936 8.084 18.034 18.034 18.034zm9.61-6.314a15.11 15.11 0 01-9.61 3.443 15.113 15.113 0 01-9.61-3.443c0-2.972 2.344-5.037 4.95-5.037h9.32c2.608 0 4.95 2.067 4.95 5.037zM18.033 2.87c8.36 0 15.163 6.802 15.163 15.163 0 3.438-1.152 6.61-3.087 9.156-1.038-3.102-3.97-5.344-7.416-5.344h-9.32c-3.446 0-6.378 2.242-7.416 5.344a15.083 15.083 0 01-3.087-9.156c0-8.36 6.802-15.163 15.163-15.163zm61.933 59.062c-9.944 0-18.034 8.09-18.034 18.034 0 9.94 8.075 18.034 18.034 18.034C89.874 98 98 89.946 98 79.966c0-9.944-8.09-18.034-18.034-18.034zm9.609 29.754a15.128 15.128 0 01-19.218 0c0-2.972 2.343-5.037 4.949-5.037h9.32c2.608 0 4.949 2.067 4.949 5.037zm2.467-2.564c-1.039-3.101-3.97-5.344-7.417-5.344h-9.319c-3.447 0-6.377 2.243-7.416 5.344a15.082 15.082 0 01-3.087-9.156c0-8.361 6.802-15.163 15.163-15.163 8.36 0 15.163 6.802 15.163 15.163 0 3.438-1.152 6.61-3.087 9.156z" fill="#000"/><path d="M22.996 17.414a7.014 7.014 0 000-9.925 7.014 7.014 0 00-9.925 0 7.014 7.014 0 000 9.925 7.014 7.014 0 009.925 0zM15.101 9.52a4.152 4.152 0 015.865 0 4.145 4.145 0 010 5.865 4.152 4.152 0 01-5.865 0 4.145 4.145 0 010-5.865zm-2.03 69.826c2.736 2.736 7.189 2.736 9.925 0a7.027 7.027 0 000-9.926 7.026 7.026 0 00-9.925 0 7.026 7.026 0 000 9.926zm2.03-7.895a4.152 4.152 0 015.865 0 4.152 4.152 0 010 5.865 4.152 4.152 0 01-5.865 0 4.152 4.152 0 010-5.865zM75.003 7.488a7.026 7.026 0 000 9.926c2.74 2.739 7.192 2.733 9.926 0a7.014 7.014 0 000-9.926 7.026 7.026 0 00-9.926 0zm7.896 7.896a4.152 4.152 0 01-5.865 0 4.152 4.152 0 010-5.866 4.152 4.152 0 015.865 0 4.145 4.145 0 010 5.866zm2.03 54.036a7.026 7.026 0 00-9.926 0 7.027 7.027 0 000 9.926c2.737 2.736 7.19 2.736 9.926 0a7.026 7.026 0 000-9.926zm-2.03 7.896a4.152 4.152 0 01-5.865 0 4.153 4.153 0 010-5.865 4.152 4.152 0 015.865 0 4.152 4.152 0 010 5.865zM58.033 19.47a1.435 1.435 0 100-2.872H39.967a1.435 1.435 0 100 2.872h18.066zM39.967 78.53a1.435 1.435 0 100 2.871h18.066a1.435 1.435 0 100-2.87H39.967zM19.47 58.032V39.967a1.435 1.435 0 10-2.871 0v18.065a1.435 1.435 0 102.87 0zm61.931 0V39.967a1.435 1.435 0 10-2.87 0v18.065a1.435 1.435 0 102.87 0z" fill="#000"/><path d="M94.846 15.108a1.436 1.436 0 002.817-.55C96.015 6.121 88.573 0 79.966 0c-9.944 0-18.034 8.09-18.034 18.034 0 9.992 8.123 18.034 18.034 18.034 8.516 0 15.861-5.983 17.631-14.235a1.435 1.435 0 10-2.807-.602 14.986 14.986 0 01-2.75 5.954c-1.04-3.1-3.97-5.339-7.415-5.339h-9.319c-3.447 0-6.378 2.242-7.416 5.344a15.082 15.082 0 01-3.087-9.156c0-8.36 6.802-15.163 15.163-15.163 7.236 0 13.494 5.146 14.88 12.237zm-19.54 9.61h9.32a4.954 4.954 0 014.949 4.949v.07c-2.647 2.17-6.016 3.46-9.61 3.46a15.12 15.12 0 01-9.608-3.443c0-2.972 2.343-5.037 4.95-5.037zM18.034 98c9.952 0 18.034-8.094 18.034-18.034 0-8.527-6.054-15.957-14.396-17.667a1.436 1.436 0 10-.576 2.813c7.011 1.437 12.1 7.684 12.1 14.854 0 3.437-1.15 6.61-3.086 9.156-1.039-3.102-3.97-5.344-7.416-5.344h-9.32c-3.446 0-6.378 2.242-7.416 5.344a15.083 15.083 0 01-3.087-9.156c0-7.17 5.09-13.417 12.102-14.854a1.436 1.436 0 00-.577-2.813C6.054 64.009 0 71.439 0 79.966 0 89.892 8.06 98 18.034 98zm-4.66-11.35h9.32c2.608 0 4.95 2.066 4.95 5.036a15.13 15.13 0 01-19.22 0c0-2.973 2.344-5.037 4.95-5.037z" fill="#000"/></svg>