<svg width="98" height="98" fill="none" xmlns="http://www.w3.org/2000/svg"><path d="M93.406 3.063H47.47a1.53 1.53 0 00-1.532 1.53V29.55l-4.66-5.438a7.651 7.651 0 00-5.813-2.674h-5.689c1.165-1.297 1.962-2.881 2.253-4.593h1.66a1.533 1.533 0 001.37-2.218l-2.902-5.8v-1.17a4.6 4.6 0 00-4.593-4.593h-9.188a4.6 4.6 0 00-4.594 4.593v7.327a9.72 9.72 0 002.456 6.454h-2.456c-4.221 0-7.656 3.435-7.656 7.657v13.781c0 1.73.599 3.31 1.571 4.594H4.594A1.53 1.53 0 003.062 49v6.125a1.53 1.53 0 001.532 1.531h1.531v6.125h3.063v-6.125h45.937v3.063h3.063v-3.063h35.218a1.53 1.53 0 001.531-1.531V4.594a1.53 1.53 0 00-1.53-1.532zM16.844 7.655c0-.845.687-1.531 1.531-1.531h9.188c.843 0 1.53.686 1.53 1.531v1.532c0 .237.056.473.162.684l1.955 3.91h-.585a1.53 1.53 0 00-1.531 1.53 6.145 6.145 0 01-2.006 4.534 6.098 6.098 0 01-4.726 1.564c-3.094-.297-5.518-3.12-5.518-6.427V7.656zm8.24 16.844l-2.115 4.232-2.116-4.232h4.232zM9.189 42.875V29.094A4.6 4.6 0 0113.78 24.5h3.648l4.17 8.34a1.529 1.529 0 002.74 0l4.17-8.34h6.955a4.59 4.59 0 013.488 1.603l7.355 8.581c.277.325.676.518 1.104.535a1.49 1.49 0 001.142-.447l8.103-8.107 3.96 3.96-9.898 9.9a4.604 4.604 0 01-6.497 0l-4.856-4.858a1.531 1.531 0 00-2.615 1.083v10.719h-7.656v-4.594a4.6 4.6 0 00-4.594-4.594h-6.125V35.22h-3.063v4.593a1.53 1.53 0 001.532 1.532H24.5c.844 0 1.531.686 1.531 1.531v4.594h-12.25a4.6 4.6 0 01-4.594-4.594zm30.624 4.594v-7.023l2.242 2.244a7.603 7.603 0 003.883 2.078v2.7h-6.124zm18.376 6.125H6.124V50.53h52.063v3.063zm33.687 0H61.25V49a1.53 1.53 0 00-1.531-1.531H49v-2.701a7.603 7.603 0 003.883-2.078l10.98-10.982a1.53 1.53 0 000-2.166l-3.51-3.51 8.105-8.106-2.166-2.165-8.105 8.105-.448-.449a1.53 1.53 0 00-2.165 0L49 29.991V6.125h42.875v47.469z" fill="#000"/><path d="M67.375 12.43l8.503 4.252a1.533 1.533 0 001.369.002l9.187-4.595-1.37-2.74-8.501 4.252-8.504-4.251a1.53 1.53 0 00-1.37 0l-9.187 4.594 1.37 2.74 8.503-4.253zm1.531 13.601h18.375v3.063H68.906V26.03zm0 6.125h18.375v3.063H68.906v-3.063zm0 6.125h18.375v3.063H68.906V38.28zm0 6.125h18.375v3.063H68.906v-3.063zM7.656 84.219v9.187a1.53 1.53 0 001.532 1.531H24.5a1.53 1.53 0 001.531-1.53v-9.188c0-3.32-1.774-6.225-4.42-7.839 1.747-1.404 2.889-3.532 2.889-5.942 0-4.222-3.435-7.657-7.656-7.657-4.222 0-7.657 3.435-7.657 7.657 0 2.41 1.143 4.538 2.89 5.942-2.646 1.614-4.42 4.519-4.42 7.839zm4.594-13.781a4.6 4.6 0 014.594-4.594 4.6 4.6 0 014.593 4.594 4.6 4.6 0 01-4.593 4.593 4.6 4.6 0 01-4.594-4.594zm-1.531 13.78a6.131 6.131 0 016.125-6.124 6.131 6.131 0 016.125 6.125v7.656h-12.25v-7.656zm18.375.001v9.187a1.53 1.53 0 001.531 1.531h15.313a1.53 1.53 0 001.53-1.53v-9.188c0-3.32-1.774-6.225-4.42-7.839 1.747-1.404 2.89-3.532 2.89-5.942 0-4.222-3.435-7.657-7.657-7.657-4.221 0-7.656 3.435-7.656 7.657 0 2.41 1.142 4.538 2.89 5.942-2.646 1.614-4.421 4.519-4.421 7.839zm4.593-13.781a4.6 4.6 0 014.594-4.594 4.6 4.6 0 014.594 4.594 4.6 4.6 0 01-4.594 4.593 4.6 4.6 0 01-4.593-4.594zm-1.53 13.78a6.131 6.131 0 016.124-6.124 6.131 6.131 0 016.125 6.125v7.656h-12.25v-7.656zm18.374.001v9.187a1.53 1.53 0 001.532 1.531h15.312a1.53 1.53 0 001.531-1.53v-9.188c0-3.32-1.775-6.225-4.42-7.839 1.747-1.404 2.889-3.532 2.889-5.942 0-4.222-3.435-7.657-7.656-7.657-4.222 0-7.657 3.435-7.657 7.657 0 2.41 1.143 4.538 2.89 5.942-2.646 1.614-4.42 4.519-4.42 7.839zm4.594-13.781a4.6 4.6 0 014.594-4.594 4.6 4.6 0 014.593 4.594 4.6 4.6 0 01-4.593 4.593 4.6 4.6 0 01-4.594-4.594zm-1.531 13.78a6.131 6.131 0 016.125-6.124 6.131 6.131 0 016.125 6.125v7.656h-12.25v-7.656zm18.375.001v9.187a1.53 1.53 0 001.531 1.531h15.313a1.53 1.53 0 001.53-1.53v-9.188c0-3.32-1.774-6.225-4.42-7.839 1.747-1.404 2.89-3.532 2.89-5.942 0-4.222-3.435-7.657-7.657-7.657-4.221 0-7.656 3.435-7.656 7.657 0 2.41 1.142 4.538 2.89 5.942-2.647 1.614-4.421 4.519-4.421 7.839zm4.594-13.781a4.6 4.6 0 014.593-4.594 4.6 4.6 0 014.594 4.594 4.6 4.6 0 01-4.594 4.593 4.6 4.6 0 01-4.594-4.594zm-1.532 13.78a6.131 6.131 0 016.125-6.124 6.131 6.131 0 016.125 6.125v7.656h-12.25v-7.656z" fill="#000"/></svg>